<?xml version="1.0" standalone="no"?><!DOCTYPE svg PUBLIC "-//W3C//DTD SVG 1.1//EN" "http://www.w3.org/Graphics/SVG/1.1/DTD/svg11.dtd"><svg t="1650705168546" class="icon" viewBox="0 0 1024 1024" version="1.1" xmlns="http://www.w3.org/2000/svg" p-id="37349" xmlns:xlink="http://www.w3.org/1999/xlink" width="200" height="200"><defs><style type="text/css">@font-face { font-family: feedback-iconfont; src: url("//at.alicdn.com/t/font_1031158_u69w8yhxdu.woff2?t=1630033759944") format("woff2"), url("//at.alicdn.com/t/font_1031158_u69w8yhxdu.woff?t=1630033759944") format("woff"), url("//at.alicdn.com/t/font_1031158_u69w8yhxdu.ttf?t=1630033759944") format("truetype"); }
</style></defs><path d="M244.202184 1024C116.03425 1018.472542 15.708326 909.714686 20.596032 781.36762V126.082343C19.636404 58.716447 73.605891 2.187952 140.869426 0.038385h317.688096a238.410016 238.410016 0 0 1 235.492746 198.566256l0.435032 2.559008h88.989516a216.376954 216.376954 0 0 1 160.552186 71.959316 239.267284 239.267284 0 0 1 59.38179 163.610201v344.506504c4.631805 128.07837-95.681323 236.938586-223.606153 242.76033zM99.925292 785.474829a148.959878 148.959878 0 0 0 144.187327 153.220627h539.362197c82.284915-2.290313 148.00025-71.050868 146.541615-153.297398V440.891555c1.586585-82.3233-64.10316-151.634042-146.439254-154.474542H99.925292zM139.218866 85.176594A40.214817 40.214817 0 0 0 99.720571 126.031163v75.145281l513.900064-0.10236-1.177144-3.966463c-19.538029-66.022416-81.261311-112.135747-150.073047-112.135748-2.750934 0-5.514663 0.063975-8.291187 0.217516H139.897003z" fill="#2c2c2c" p-id="37350"></path><path d="M261.002075 657.65236h361.472729c25.244618-2.008822 43.886994-21.892317 41.647861-44.437181-1.970436-19.755545-19.512439-35.416676-41.647861-37.182392H261.002075c-25.244618 2.008822-43.899789 21.905112-41.647862 44.437181 1.970436 19.76834 19.512439 35.429471 41.647862 37.182392zM763.041134 691.687171H261.002075c-25.244618 1.996027-43.899789 21.892317-41.647862 44.424386 1.970436 19.76834 19.512439 35.429471 41.647862 37.182392h502.039059c25.244618-1.996027 43.886994-21.892317 41.647862-44.437181-1.970436-19.755545-19.512439-35.378291-41.647862-37.169597z" fill="#2c2c2c" p-id="37351"></path></svg>