<?xml version="1.0" standalone="no"?><!DOCTYPE svg PUBLIC "-//W3C//DTD SVG 1.1//EN" "http://www.w3.org/Graphics/SVG/1.1/DTD/svg11.dtd"><svg class="icon" width="200px" height="200.00px" viewBox="0 0 1024 1024" version="1.1" xmlns="http://www.w3.org/2000/svg"><path fill="#333333" d="M960 597.333333a21.333333 21.333333 0 0 0-21.333333 21.333334v256a64 64 0 0 1-64 64H149.333333a64 64 0 0 1-64-64V618.666667a21.333333 21.333333 0 0 0-42.666666 0v256a106.666667 106.666667 0 0 0 106.666666 106.666666h725.333334a106.666667 106.666667 0 0 0 106.666666-106.666666V618.666667a21.333333 21.333333 0 0 0-21.333333-21.333334zM874.666667 42.666667H149.333333a106.666667 106.666667 0 0 0-106.666666 106.666666v254.72a21.333333 21.333333 0 0 0 42.666666 0V149.333333a64 64 0 0 1 64-64h725.333334a64 64 0 0 1 64 64v257.28a21.333333 21.333333 0 1 0 42.666666 0V149.333333a106.666667 106.666667 0 0 0-106.666666-106.666666zM193.28 661.333333a32 32 0 1 0 42.666667-30.08 10.24 10.24 0 0 0 0-1.92V408.533333a88.533333 88.533333 0 1 1 176.853333 0v130.986667a31.786667 31.786667 0 0 0 0 60.586667v11.733333a98.986667 98.986667 0 1 0 197.76 0v-144.426667a31.786667 31.786667 0 0 0 0-59.946666 88.32 88.32 0 0 1 176.853333 1.066666v211.413334a31.786667 31.786667 0 1 0 21.333334 1.493333v-213.333333a109.653333 109.653333 0 0 0-219.52-1.28 31.786667 31.786667 0 0 0 0 60.16v144.213333a77.653333 77.653333 0 1 1-155.093334 0v-11.733333a31.786667 31.786667 0 0 0 0-59.733334v-131.2a109.866667 109.866667 0 1 0-219.52 0V629.333333a10.026667 10.026667 0 0 0 0 1.92 32 32 0 0 0-21.333333 30.08z"  /></svg>