<?xml version="1.0" standalone="no"?><!DOCTYPE svg PUBLIC "-//W3C//DTD SVG 1.1//EN" "http://www.w3.org/Graphics/SVG/1.1/DTD/svg11.dtd"><svg class="icon" width="200px" height="200.00px" viewBox="0 0 1024 1024" version="1.1" xmlns="http://www.w3.org/2000/svg"><path fill="#333333" d="M957.346611 762.45406l-43.33447-24.406771a460.740054 460.740054 0 0 0 58.27739-225.140005h49.809736a513.538374 513.538374 0 0 1-64.752656 249.546776zM49.813229 512.907284H0.003493a511.047887 511.047887 0 0 1 833.316876-398.477884l-31.380133 38.353496A461.238151 461.238151 0 0 0 49.813229 512.907284zM511.05138 1023.955171a509.553595 509.553595 0 0 1-398.477884-193.759871L149.4327 798.815166a461.736249 461.736249 0 0 0 486.143019 158.39496l13.448629 49.809735a515.032666 515.032666 0 0 1-137.972968 16.93531zM579.788815 738.047289L300.356199 466.086133l-248.550581 253.531554-35.364912-34.866815 282.919298-288.896466 278.436422 270.466864 400.968371-444.800939 36.859204 33.372523-435.835186 483.154435z" /></svg>