<?xml version="1.0" standalone="no"?><!DOCTYPE svg PUBLIC "-//W3C//DTD SVG 1.1//EN" "http://www.w3.org/Graphics/SVG/1.1/DTD/svg11.dtd"><svg class="icon" width="200px" height="200.00px" viewBox="0 0 1024 1024" version="1.1" xmlns="http://www.w3.org/2000/svg"><path fill="#333333" d="M883.941273 140.044584A106.072953 106.072953 0 0 1 990.014226 246.117537v318.218858A106.072953 106.072953 0 0 1 883.941273 670.409348H548.043589a35.357651 35.357651 0 0 1 0-70.715302h335.897684a35.357651 35.357651 0 0 0 35.357651-35.357651V246.117537a35.357651 35.357651 0 0 0-35.357651-35.357651H702.202947A141.077027 141.077027 0 0 1 424.291811 175.402235a141.077027 141.077027 0 1 1 277.911136-35.357651h181.738326zM565.722415 246.117537a70.715302 70.715302 0 1 0 0-141.430604 70.715302 70.715302 0 0 0 0 141.430604z m282.861207 495.007113a141.430604 141.430604 0 1 1-138.460561 170.211731H353.576509a106.002237 106.002237 0 0 1-105.931522-104.446501A141.077027 141.077027 0 0 1 141.430604 670.409348h-35.357651A106.072953 106.072953 0 0 1 0 564.336395V246.117537a106.072953 106.072953 0 0 1 106.072953-106.072953h229.824731a35.357651 35.357651 0 0 1 0 70.715302H106.072953A35.357651 35.357651 0 0 0 70.715302 246.117537v318.218858a35.357651 35.357651 0 0 0 35.357651 35.357651h54.945789c24.53821-42.14632 69.583857-70.715302 121.842465-70.715302a141.077027 141.077027 0 0 1 35.640513 277.769706c0.707153 18.880986 16.193804 33.801914 35.074789 33.872629h360.64804A141.006312 141.006312 0 0 1 848.583622 741.12465zM212.145906 670.409348a70.715302 70.715302 0 1 0 141.430603 0 70.715302 70.715302 0 0 0-141.430603 0z m636.437716 282.861207a70.715302 70.715302 0 1 0 0-141.430604 70.715302 70.715302 0 0 0 0 141.430604z" /></svg>