<?xml version="1.0" standalone="no"?><!DOCTYPE svg PUBLIC "-//W3C//DTD SVG 1.1//EN" "http://www.w3.org/Graphics/SVG/1.1/DTD/svg11.dtd"><svg t="1650705010706" class="icon" viewBox="0 0 1024 1024" version="1.1" xmlns="http://www.w3.org/2000/svg" p-id="27788" xmlns:xlink="http://www.w3.org/1999/xlink" width="200" height="200"><defs><style type="text/css">@font-face { font-family: feedback-iconfont; src: url("//at.alicdn.com/t/font_1031158_u69w8yhxdu.woff2?t=1630033759944") format("woff2"), url("//at.alicdn.com/t/font_1031158_u69w8yhxdu.woff?t=1630033759944") format("woff"), url("//at.alicdn.com/t/font_1031158_u69w8yhxdu.ttf?t=1630033759944") format("truetype"); }
</style></defs><path d="M864 243.2a83.2 83.2 0 1 0 0-166.4 83.2 83.2 0 0 0 0 166.4z" fill="#707070" p-id="27789" data-spm-anchor-id="a313x.7781069.0.i37" class=""></path><path d="M499.2 358.4c91.904 0 166.4 74.496 166.4 166.4s-74.496 166.4-166.4 166.4-166.4-74.496-166.4-166.4 74.496-166.4 166.4-166.4z m0 76.8a89.6 89.6 0 1 0 0 179.2 89.6 89.6 0 0 0 0-179.2z" fill="#707070" p-id="27790" data-spm-anchor-id="a313x.7781069.0.i38" class=""></path><path d="M499.2 64c41.8176 0 82.944 5.5808 122.56 16.4864a38.4 38.4 0 0 1-20.3904 74.048A384.4352 384.4352 0 0 0 499.2 140.8C287.1168 140.8 115.2 312.7168 115.2 524.8c0 212.0832 171.9168 384 384 384 212.0832 0 384-171.9168 384-384 0-29.888-3.4048-59.3024-10.0864-87.8592a38.4 38.4 0 1 1 74.7776-17.4976C955.9168 453.7216 960 489.0112 960 524.8c0 254.4896-206.3104 460.8-460.8 460.8S38.4 779.2896 38.4 524.8 244.7104 64 499.2 64z" fill="#2c2c2c" p-id="27791" data-spm-anchor-id="a313x.7781069.0.i35" class="selected"></path><path d="M512 388.864l201.216-120.5504a25.6 25.6 0 0 1 35.328 34.752L627.9808 512 512 388.864z" fill="#707070" p-id="27792" data-spm-anchor-id="a313x.7781069.0.i36" class=""></path></svg>