<?xml version="1.0" standalone="no"?><!DOCTYPE svg PUBLIC "-//W3C//DTD SVG 1.1//EN" "http://www.w3.org/Graphics/SVG/1.1/DTD/svg11.dtd"><svg class="icon" width="200px" height="200.00px" viewBox="0 0 1024 1024" version="1.1" xmlns="http://www.w3.org/2000/svg"><path d="M279.28508 370.998425v-32.050394c0-88.793701 72.264567-161.058268 161.058267-161.058267h191.395276c16.428346 0 29.732283-13.303937 29.732283-29.631496s-13.303937-29.732283-29.631496-29.732284H440.24256c-121.549606 0-220.32126 98.872441-220.32126 220.422047v32.050394h59.36378zM631.637836 903.35748H440.24256c-88.793701 0-161.058268-72.264567-161.058268-161.058267v-30.034646h-59.363779v30.034646c0 121.549606 98.872441 220.422047 220.422047 220.422047h191.294488c16.428346 0 29.732283-13.303937 29.732284-29.732284s-13.20315-29.631496-29.631496-29.631496z" opacity=".5" /><path d="M822.025237 0h-76.296063C660.261458 0 590.919725 69.341732 590.919725 154.809449v714.381102c0 85.467717 69.341732 154.809449 154.809449 154.809449h76.296063c85.467717 0 154.809449-69.341732 154.809449-154.809449V154.809449C976.733899 69.341732 907.492954 0 822.025237 0zM807.612639 845.908661c0 13.20315-10.683465 23.785827-23.785827 23.785827s-23.785827-10.683465-23.785827-23.785827V207.722835c0-13.20315 10.683465-23.785827 23.785827-23.785827s23.785827 10.683465 23.785827 23.785827v638.185826zM442.459883 439.332283H71.461458c-13.102362 0-23.785827-10.683465-23.785827-23.785826s10.683465-23.785827 23.785827-23.785827h370.998425c13.20315 0 23.785827 10.683465 23.785827 23.785827s-10.582677 23.785827-23.785827 23.785826zM442.459883 558.059843H71.461458c-13.102362 0-23.785827-10.683465-23.785827-23.785827s10.683465-23.785827 23.785827-23.785827h370.998425c13.20315 0 23.785827 10.683465 23.785827 23.785827s-10.582677 23.785827-23.785827 23.785827zM442.459883 676.787402H71.461458c-13.102362 0.302362-23.987402-10.179528-24.289764-23.28189s10.179528-23.987402 23.28189-24.289764h372.006299c13.102362-0.302362 23.987402 10.179528 24.289764 23.28189 0.302362 13.102362-10.179528 23.987402-23.28189 24.289764h-1.007874z"  /></svg>