<?xml version="1.0" standalone="no"?><!DOCTYPE svg PUBLIC "-//W3C//DTD SVG 1.1//EN" "http://www.w3.org/Graphics/SVG/1.1/DTD/svg11.dtd"><svg class="icon" width="200px" height="200.00px" viewBox="0 0 1024 1024" version="1.1" xmlns="http://www.w3.org/2000/svg"><path d="M113.664 30.72H568.32c62.976 0 113.664 50.688 113.664 113.664V599.04c0 62.976-50.688 113.664-113.664 113.664H113.664C50.688 712.704 0 662.016 0 599.04V144.384C0 81.408 50.688 30.72 113.664 30.72z m0 0" fill="#44BCC7" opacity=".5" /><path d="M113.664 87.552c-14.848 0-29.696 6.144-40.448 16.896-10.752 10.752-16.896 25.088-16.896 39.936V599.04c0 31.232 25.6 56.832 56.832 56.832H568.32c14.848 0 29.696-6.144 39.936-16.896 10.752-10.752 16.896-25.088 16.896-39.936V144.384c0-14.848-6.144-29.696-16.896-39.936-10.752-10.752-25.088-16.896-39.936-16.896H113.664z m0-56.832H568.32c62.976 0 113.664 50.688 113.664 113.664V599.04c0 62.976-50.688 113.664-113.664 113.664H113.664C50.688 712.704 0 662.016 0 599.04V144.384C0 81.408 50.688 30.72 113.664 30.72z m0 0" fill="#44BCC7" /><path d="M454.656 371.712c-14.848 0-29.696 6.144-39.936 16.896-10.752 10.752-16.896 25.088-16.896 39.936v454.656c0 14.848 6.144 29.696 16.896 39.936 10.752 10.752 25.088 16.896 39.936 16.896h454.656c31.232 0 56.832-25.6 56.832-56.832V428.544c0-14.848-6.144-29.696-16.896-39.936-10.752-10.752-25.088-16.896-39.936-16.896H454.656z m0-56.832h454.656c62.976 0 113.664 50.688 113.664 113.664v454.656c0 62.976-50.688 113.664-113.664 113.664H454.656c-62.976 0-113.664-50.688-113.664-113.664V428.544c0-62.976 50.688-113.664 113.664-113.664z m0 0" fill="#E9A717" /></svg>