<?xml version="1.0" standalone="no"?><!DOCTYPE svg PUBLIC "-//W3C//DTD SVG 1.1//EN" "http://www.w3.org/Graphics/SVG/1.1/DTD/svg11.dtd"><svg t="1654073777930" class="icon" viewBox="0 0 1024 1024" version="1.1" xmlns="http://www.w3.org/2000/svg" p-id="11952" xmlns:xlink="http://www.w3.org/1999/xlink" width="200" height="200"><defs><style type="text/css">@font-face { font-family: feedback-iconfont; src: url("//at.alicdn.com/t/font_1031158_u69w8yhxdu.woff2?t=1630033759944") format("woff2"), url("//at.alicdn.com/t/font_1031158_u69w8yhxdu.woff?t=1630033759944") format("woff"), url("//at.alicdn.com/t/font_1031158_u69w8yhxdu.ttf?t=1630033759944") format("truetype"); }
</style></defs><path d="M513.141 926.274c-56.015 0-110.371-10.978-161.559-32.629-49.426-20.905-93.808-50.826-131.913-88.932-38.106-38.105-68.027-82.487-88.932-131.913-21.65-51.188-32.628-105.545-32.628-161.56s10.978-110.372 32.628-161.56c20.905-49.425 50.826-93.808 88.932-131.913 38.105-38.105 82.487-68.027 131.913-88.932 51.188-21.651 105.544-32.628 161.559-32.628s110.372 10.978 161.56 32.628c49.426 20.905 93.808 50.827 131.913 88.932s68.026 82.488 88.932 131.913c21.651 51.188 32.629 105.544 32.629 161.56 0 56.015-10.978 110.371-32.629 161.56-20.905 49.426-50.826 93.808-88.932 131.913S724.126 872.74 674.7 893.646c-51.187 21.651-105.545 32.628-161.559 32.628z m0-766.066c-193.56 0-351.033 157.473-351.033 351.033s157.473 351.033 351.033 351.033c193.561 0 351.033-157.473 351.033-351.033S706.701 160.208 513.141 160.208z" fill="" p-id="11953"></path><path d="M347.911 411.108m-42.81 0a42.81 42.81 0 1 0 85.62 0 42.81 42.81 0 1 0-85.62 0Z" fill="" p-id="11954"></path><path d="M679.19 412.193m-42.81 0a42.81 42.81 0 1 0 85.62 0 42.81 42.81 0 1 0-85.62 0Z" fill="" p-id="11955"></path><path d="M354.196 702.055c-13.346 0-25.798-8.414-30.311-21.758-5.661-16.742 3.321-34.903 20.063-40.564 1.744-0.59 43.421-14.521 105.593-21.495 57.448-6.442 144.453-7.952 232.708 21.449 16.768 5.585 25.832 23.706 20.246 40.473-5.586 16.769-23.71 25.832-40.473 20.246-148.257-49.387-296.097-0.545-297.573-0.046a31.95 31.95 0 0 1-10.253 1.695z" fill="" p-id="11956"></path></svg>