<?xml version="1.0" standalone="no"?><!DOCTYPE svg PUBLIC "-//W3C//DTD SVG 1.1//EN" "http://www.w3.org/Graphics/SVG/1.1/DTD/svg11.dtd"><svg t="1654073658558" class="icon" viewBox="0 0 1024 1024" version="1.1" xmlns="http://www.w3.org/2000/svg" p-id="6939" xmlns:xlink="http://www.w3.org/1999/xlink" width="200" height="200"><defs><style type="text/css">@font-face { font-family: feedback-iconfont; src: url("//at.alicdn.com/t/font_1031158_u69w8yhxdu.woff2?t=1630033759944") format("woff2"), url("//at.alicdn.com/t/font_1031158_u69w8yhxdu.woff?t=1630033759944") format("woff"), url("//at.alicdn.com/t/font_1031158_u69w8yhxdu.ttf?t=1630033759944") format("truetype"); }
</style></defs><path d="M552.96 874.25024v81.92h-81.92v-81.92H143.36a40.96 40.96 0 0 1-40.96-40.96v-655.36a40.96 40.96 0 0 1 40.96-40.96h245.76a163.4304 163.4304 0 0 1 122.88 55.45984 163.4304 163.4304 0 0 1 122.88-55.45984h245.76a40.96 40.96 0 0 1 40.96 40.96v655.36a40.96 40.96 0 0 1-40.96 40.96h-327.68z m286.72-81.92v-573.44h-204.8a81.92 81.92 0 0 0-81.92 81.92v491.52h286.72z m-368.64 0v-491.52a81.92 81.92 0 0 0-81.92-81.92H184.32v573.44h286.72z" p-id="6940"></path></svg>