<?xml version="1.0" standalone="no"?><!DOCTYPE svg PUBLIC "-//W3C//DTD SVG 1.1//EN" "http://www.w3.org/Graphics/SVG/1.1/DTD/svg11.dtd"><svg t="1654075249089" class="icon" viewBox="0 0 1024 1024" version="1.1" xmlns="http://www.w3.org/2000/svg" p-id="14929" xmlns:xlink="http://www.w3.org/1999/xlink" width="200" height="200"><defs><style type="text/css">@font-face { font-family: feedback-iconfont; src: url("//at.alicdn.com/t/font_1031158_u69w8yhxdu.woff2?t=1630033759944") format("woff2"), url("//at.alicdn.com/t/font_1031158_u69w8yhxdu.woff?t=1630033759944") format("woff"), url("//at.alicdn.com/t/font_1031158_u69w8yhxdu.ttf?t=1630033759944") format("truetype"); }
</style></defs><path d="M791.466 107.709C723.893 39.839 634.107 2.421 538.587 2.421S353.282 39.839 285.752 107.709a357.827 357.827 0 0 0-104.694 254.11c0 64.133 16.989 127.119 49.183 182.077a361.012 361.012 0 0 0 113.485 119.347v175.324c0 45.658 36.95 82.82 82.396 82.82h224.55c45.402 0 82.395-37.205 82.395-82.82V663.54a360.757 360.757 0 0 0 113.782-119.389 360.587 360.587 0 0 0 49.31-182.29A357.87 357.87 0 0 0 791.466 107.71z m-121.13 730.816a19.665 19.665 0 0 1-19.665 19.75h-224.55a19.75 19.75 0 0 1-19.706-19.75v-74.411h263.92v74.41z m122.446-326.44A296.624 296.624 0 0 1 685.965 618.52l-15.63 9.131v73.434h-263.92v-73.561l-15.588-9.174a297.05 297.05 0 0 1-106.52-106.392A297.644 297.644 0 0 1 243.79 361.86c0-79.167 30.665-153.62 86.303-209.556 55.681-55.978 129.752-86.77 208.495-86.77s152.772 30.834 208.496 86.77a295.095 295.095 0 0 1 86.303 209.556 296.794 296.794 0 0 1-40.604 150.224zM647.358 960.972H429.902a31.472 31.472 0 1 0 0 63.028h217.456a31.43 31.43 0 0 0 31.345-31.557 31.43 31.43 0 0 0-31.345-31.471z" p-id="14930"></path></svg>