<?xml version="1.0" standalone="no"?><!DOCTYPE svg PUBLIC "-//W3C//DTD SVG 1.1//EN" "http://www.w3.org/Graphics/SVG/1.1/DTD/svg11.dtd"><svg class="icon" width="200px" height="200.00px" viewBox="0 0 1024 1024" version="1.1" xmlns="http://www.w3.org/2000/svg"><path fill="#333333" d="M826.849039 777.215301c-12.284985-12.289985-31.742461-12.289985-43.007447 0-12.284985 12.286235-12.284985 31.743711 0 43.008698l11.264986 11.263736a29.699964 29.699964 0 0 0 43.007448 0c12.289985-12.289985 12.289985-31.742461 0-43.007448z m39.937452-586.751783c-74.751159 0-136.192334 61.439925-136.192334 136.191083v2.051248l-58.368679 15.356231A255.114689 255.114689 0 0 0 474.593219 201.728504V30.717463a30.719963 30.719963 0 0 0-61.441175 0v172.037289c-43.007448 5.116244-81.91865 21.502474-115.707358 45.052446l-61.439925-61.439925a109.927366 109.927366 0 0 0 17.406228-60.414927c-1.024999-63.486173-53.246185-115.712359-116.737357-115.712358-63.487423 0-114.68736 52.226186-114.68736 115.712358s52.224936 115.712359 115.712359 115.712359a113.903611 113.903611 0 0 0 53.247435-13.314984l61.439925 61.439925c-37.887454 44.033696-61.439925 101.377376-61.439925 163.84355a117.431107 117.431107 0 0 0 1.024998 19.453727L42.466247 514.045623C26.083767 518.145617 16.868778 535.550596 20.961273 551.934326c4.097495 13.314984 16.38748 22.528722 29.697464 22.528723a22.638722 22.638722 0 0 0 8.19374-1.019999l145.404822-39.937451A254.814689 254.814689 0 0 0 413.153294 704.51164v93.183636c-49.14994 13.311234-84.989896 58.369929-84.989896 110.591115 0 63.491172 52.221186 115.712359 115.712359 115.712359 63.487423 0 115.712359-52.222436 115.712359-115.712359 0-53.247435-35.838706-97.279881-84.993647-110.591115V704.51164a251.292193 251.292193 0 0 0 133.119838-59.388678l102.402375 102.397375a29.688714 29.688714 0 0 0 43.007447 0c12.284985-12.287485 12.284985-31.743711 0-43.008697l-103.422373-104.447373a249.850945 249.850945 0 0 0 47.098692-146.431071 268.927172 268.927172 0 0 0-5.116244-50.174939l54.272434-14.337482a136.383584 136.383584 0 0 0 258.045935-61.438675c-1.024999-75.777407-61.439925-137.217332-137.216082-137.217333zM83.427447 125.952346a54.272434 54.272434 0 1 1 54.272434 54.272434 54.629933 54.629933 0 0 1-54.272434-54.272434z m413.695745 782.332795a54.272434 54.272434 0 1 1-54.272434-54.272433 54.629933 54.629933 0 0 1 54.272434 54.272433z m369.662049-505.854382a74.749909 74.749909 0 1 1 74.749908-74.749909 75.172408 75.172408 0 0 1-74.749908 74.749909z m0 0" /></svg>