<?xml version="1.0" standalone="no"?><!DOCTYPE svg PUBLIC "-//W3C//DTD SVG 1.1//EN" "http://www.w3.org/Graphics/SVG/1.1/DTD/svg11.dtd"><svg t="1652184375344" class="icon" viewBox="0 0 1024 1024" version="1.1" xmlns="http://www.w3.org/2000/svg" p-id="9117" xmlns:xlink="http://www.w3.org/1999/xlink" width="200" height="200"><defs><style type="text/css">@font-face { font-family: feedback-iconfont; src: url("//at.alicdn.com/t/font_1031158_u69w8yhxdu.woff2?t=1630033759944") format("woff2"), url("//at.alicdn.com/t/font_1031158_u69w8yhxdu.woff?t=1630033759944") format("woff"), url("//at.alicdn.com/t/font_1031158_u69w8yhxdu.ttf?t=1630033759944") format("truetype"); }
</style></defs><path d="M511.995458 0.000569a156.423849 156.423849 0 0 1 42.661049 306.932032V402.152063a227.582479 227.582479 0 0 1 176.901153 283.26937l50.79509 50.79509a156.423849 156.423849 0 1 1-56.312586 64.332862l-34.697654-34.811416A227.127428 227.127428 0 0 1 511.995458 853.221561c-72.808191 0-137.652987-34.242603-179.347053-87.483592l-34.697654 34.811416a156.423849 156.423849 0 1 1-56.312585-64.332862l50.738208-50.79509A227.810005 227.810005 0 0 1 469.334408 402.152063V306.989482A156.48073 156.48073 0 0 1 511.995458 0.000569zM156.486711 796.340162a71.101749 71.101749 0 1 0 0 142.203499 71.101749 71.101749 0 0 0 0-142.203499z m711.017494 0a71.101749 71.101749 0 1 0 0 142.203499 71.101749 71.101749 0 0 0 0-142.203499zM511.995458 483.492465a142.203499 142.203499 0 1 0 0 284.406997 142.203499 142.203499 0 0 0 0-284.406997z m238.389945-290.834596a468.702732 468.702732 0 0 1 238.617471 450.72821l-2.275256 20.249778-84.52576-11.091873c3.583528-27.530597 4.209224-55.516246 1.706442-83.672539a383.323751 383.323751 0 0 0-182.134241-294.076835l-13.082722-7.678989 41.694066-74.457752z m-483.036845 0l41.694066 74.457752-13.082722 7.622107A383.323751 383.323751 0 0 0 113.825661 568.871445c-2.4459 28.156293-1.820205 56.141941 1.706442 83.672539l-84.525759 11.091873-2.275256-20.249778a468.702732 468.702732 0 0 1 238.560589-450.671329H267.40544zM511.995458 85.322668A71.101749 71.101749 0 1 0 511.995458 227.526167a71.101749 71.101749 0 0 0 0-142.203499z" fill="#7E8392" p-id="9118"></path></svg>