<?xml version="1.0" standalone="no"?><!DOCTYPE svg PUBLIC "-//W3C//DTD SVG 1.1//EN" "http://www.w3.org/Graphics/SVG/1.1/DTD/svg11.dtd"><svg class="icon" width="200px" height="200.00px" viewBox="0 0 1024 1024" version="1.1" xmlns="http://www.w3.org/2000/svg"><path fill="#333333" d="M563.676279 264.811163a45.722791 45.722791 0 1 0-57.153488 44.293953v128.11907a68.512744 68.512744 0 0 0-41.436279 23.909209l-110.973024-64.059535a45.746605 45.746605 0 1 0-11.430697 19.81321l110.973023 64.059535a68.417488 68.417488 0 0 0 0 47.842232l-110.973023 64.059535a45.722791 45.722791 0 1 0 11.430697 19.765581l110.973024-64.059534a68.512744 68.512744 0 0 0 41.436279 23.933023v128.11907a45.722791 45.722791 0 1 0 22.861395 0v-128.11907a68.512744 68.512744 0 0 0 41.436279-23.909209l110.973023 64.059534a45.722791 45.722791 0 1 0 11.430698-19.789395l-110.973023-64.059535a68.465116 68.465116 0 0 0 0-47.866046l110.973023-64.059535a45.746605 45.746605 0 1 0-11.430698-19.765582l-110.973023 64.059535a68.536558 68.536558 0 0 0-41.436279-23.933023v-128.11907a45.722791 45.722791 0 0 0 34.292093-44.293953z m-45.722791-22.861396a22.861395 22.861395 0 1 1 0 45.722791 22.861395 22.861395 0 0 1 0-45.722791z m-196.465116 123.094326a22.861395 22.861395 0 1 1-22.861395 39.578791 22.861395 22.861395 0 0 1 22.861395-39.578791z m152.409302 127.571349a45.722791 45.722791 0 0 1 44.055814-33.482419 45.722791 45.722791 0 1 1-44.055814 33.482419z m232.138419 120.832l0.023814-0.047628a22.861395 22.861395 0 1 1-0.047628 0.095256l0.023814-0.047628z m-376.165209 0.023814a22.861395 22.861395 0 1 1 0-0.047628v0.047628z m407.409116-208.848372A22.861395 22.861395 0 1 1 714.418605 365.067907a22.861395 22.861395 0 0 1 22.861395 39.578791zM495.092093 744.900465a22.861395 22.861395 0 1 1 45.722791 0 22.861395 22.861395 0 0 1-45.722791 0z"  /><path fill="#333333" d="M109.234605 195.226791a125.83293 125.83293 0 0 0-67.560186 111.449302v396.383256a125.83293 125.83293 0 0 0 67.560186 111.449302l323.774511 169.555349a183.129302 183.129302 0 0 0 169.888744 0l323.774512-169.555349a125.83293 125.83293 0 0 0 67.560186-111.449302V306.652279a125.83293 125.83293 0 0 0-67.560186-111.449302l-323.774512-169.555349a183.129302 183.129302 0 0 0-169.888744 0L109.234605 195.202977z m856.921302 507.832558a97.875349 97.875349 0 0 1-52.557395 86.682791l-323.774512 169.555348c-45.008372 23.575814-98.732651 23.575814-143.741023 0l-323.774512-169.555348a97.875349 97.875349 0 0 1-52.557395-86.682791V306.652279a97.875349 97.875349 0 0 1 52.557395-86.682791l323.774512-169.555348a154.957395 154.957395 0 0 1 143.741023 0l323.774512 169.555348a97.875349 97.875349 0 0 1 52.557395 86.682791v396.40707z"  /></svg>