<?xml version="1.0" standalone="no"?><!DOCTYPE svg PUBLIC "-//W3C//DTD SVG 1.1//EN" "http://www.w3.org/Graphics/SVG/1.1/DTD/svg11.dtd"><svg class="icon" width="200px" height="200.00px" viewBox="0 0 1024 1024" version="1.1" xmlns="http://www.w3.org/2000/svg"><path fill="#333333" d="M800 633.6c-23.466667 0-44.8 6.4-64 17.066667l-162.133333-281.6c38.4-21.333333 64-61.866667 64-108.8 0-70.4-57.6-125.866667-125.866667-125.866667s-128 57.6-128 128c0 46.933333 25.6 87.466667 64 108.8l-162.133333 281.6c-19.2-10.666667-38.4-14.933333-61.866667-14.933333-70.4 0-125.866667 57.6-125.866667 125.866666s57.6 125.866667 125.866667 125.866667c70.4 0 125.866667-55.466667 125.866667-125.866667h322.133333c2.133333 68.266667 57.6 123.733333 125.866667 123.733334 70.4 0 125.866667-57.6 125.866666-125.866667s-53.333333-128-123.733333-128z m-110.933333 66.133333H332.8v-2.133333l177.066667-307.2 179.2 309.333333zM509.866667 198.4c34.133333 0 61.866667 27.733333 61.866666 61.866667s-27.733333 61.866667-61.866666 61.866666-61.866667-25.6-61.866667-59.733333 27.733333-64 61.866667-64zM224 825.6c-34.133333 0-61.866667-27.733333-61.866667-61.866667s27.733333-61.866667 61.866667-61.866666 61.866667 27.733333 61.866667 61.866666-27.733333 61.866667-61.866667 61.866667z m576-2.133333c-34.133333 0-61.866667-27.733333-61.866667-61.866667s27.733333-61.866667 61.866667-61.866667 61.866667 27.733333 61.866667 61.866667-27.733333 61.866667-61.866667 61.866667z" /></svg>