<?xml version="1.0" standalone="no"?><!DOCTYPE svg PUBLIC "-//W3C//DTD SVG 1.1//EN" "http://www.w3.org/Graphics/SVG/1.1/DTD/svg11.dtd"><svg t="1650706476055" class="icon" viewBox="0 0 1117 1024" version="1.1" xmlns="http://www.w3.org/2000/svg" p-id="110830" xmlns:xlink="http://www.w3.org/1999/xlink" width="218.1640625" height="200"><defs><style type="text/css">@font-face { font-family: feedback-iconfont; src: url("//at.alicdn.com/t/font_1031158_u69w8yhxdu.woff2?t=1630033759944") format("woff2"), url("//at.alicdn.com/t/font_1031158_u69w8yhxdu.woff?t=1630033759944") format("woff"), url("//at.alicdn.com/t/font_1031158_u69w8yhxdu.ttf?t=1630033759944") format("truetype"); }
</style></defs><path d="M638.977862 658.152727l124.276363 165.422546-44.497454 32.954182L590.477498 686.08c18.245818-6.516364 34.536727-15.918545 48.407273-27.927273z m-197.073455 19.176728L311.856407 841.728l-48.034909-28.392727 132.654546-167.656728c12.939636 12.753455 28.299636 23.458909 45.428363 31.65091zM177.805498 387.537455l196.142546 70.004363a235.799273 235.799273 0 0 0-16.756364 52.224l-217.088-77.544727 37.701818-44.683636z m689.431273-0.651637l19.362909 51.2-201.541818 69.073455a237.288727 237.288727 0 0 0-17.314909-51.944728l199.493818-68.328727zM547.841862 177.152v166.912a115.898182 115.898182 0 0 0-55.947637 0.651636v-167.563636h55.854546z" fill="#0090FF" p-id="110831"></path><path d="M337.73568 521.122909a181.527273 177.431273 0 1 0 363.054545 0 181.527273 177.431273 0 1 0-363.054545 0Z" fill="#0090FF" p-id="110832"></path><path d="M677.517498 882.688l12.846546 8.192c0.372364 8.657455 1.861818 17.128727 4.282181 25.320727l-5.399272 11.357091a419.467636 419.467636 0 0 1-157.975273 30.72 421.236364 421.236364 0 0 1-157.323636-30.440727l-5.492364-11.450182a92.16 92.16 0 0 0 4.096-18.804364l0.279273-6.795636 9.588363 0.186182 3.351273-8.005818c45.707636 19.176727 94.952727 29.137455 145.501091 29.137454 41.890909 0 82.850909-6.795636 121.576727-20.014545l24.669091-9.402182z m-572.974545-396.567273l10.798545-8.657454 7.447273 0.930909 7.540364 0.279273 9.774545-0.465455 10.24 10.146909a391.074909 391.074909 0 0 0 94.301091 292.305455l-3.909818 14.894545a86.295273 86.295273 0 0 0-21.876364 12.101818l-12.660364-1.396363a437.061818 437.061818 0 0 1-103.144727-283.275637l0.465455-20.48 1.024-16.384z m842.752-8.471272l10.612363 8.378181a437.434182 437.434182 0 0 1-101.189818 319.860364l-12.660363 1.396364a94.580364 94.580364 0 0 0-22.155637-12.288l-3.630545-14.801455A390.702545 390.702545 0 0 0 912.292771 488.168727l9.774545-10.146909 10.984728 0.651637c4.747636 0 9.588364-0.372364 14.242909-1.024zM423.286225 102.213818l11.636364 8.750546c0.279273 8.564364 1.582545 16.849455 3.909818 24.948363l-6.516363 11.543273c-90.205091 24.296727-168.494545 81.92-219.973819 160.861091l-14.42909 1.396364a94.021818 94.021818 0 0 0-19.549091-15.080728l-3.165091-13.218909A429.986909 429.986909 0 0 1 392.100771 111.709091l22.341818-7.168 4.747636 18.059636 8.843637-2.327272-4.654546-17.966546z m216.808728 0a429.149091 429.149091 0 0 1 247.435636 179.572364l-2.978909 13.032727a99.607273 99.607273 0 0 0-19.642182 15.453091l-14.429091-1.489455a383.255273 383.255273 0 0 0-219.508363-161.233454l-6.516364-11.636364a97.745455 97.745455 0 0 0 4.002909-27.648h10.053818l1.582546-5.957818z" fill="#555555" p-id="110833"></path><path d="M941.988771 445.533091c29.789091 0 53.992727-24.389818 53.992727-54.458182a54.178909 54.178909 0 0 0-53.992727-54.458182c-29.789091 0-53.992727 24.389818-53.992727 54.458182 0 30.068364 24.203636 54.458182 53.992727 54.458182z m0 56.599273A110.498909 110.498909 0 0 1 832.048407 390.981818c0-61.346909 49.245091-111.057455 109.847273-111.057454 60.788364 0 110.033455 49.710545 110.033455 111.057454s-49.245091 111.057455-109.940364 111.057455zM109.849135 445.533091c29.789091 0 53.992727-24.389818 53.992727-54.458182a54.178909 54.178909 0 0 0-53.992727-54.458182c-29.789091 0-53.992727 24.389818-53.992728 54.458182 0 30.068364 24.203636 54.458182 53.992728 54.458182z m0 56.599273A110.498909 110.498909 0 0 1 0.001862 390.981818c0-61.346909 49.245091-111.057455 109.940363-111.057454s109.940364 49.710545 109.940364 111.057454-49.245091 111.057455-109.847273 111.057455zM525.965498 165.515636c29.789091 0 53.992727-24.389818 53.992727-54.458181a54.178909 54.178909 0 0 0-53.992727-54.458182c-29.789091 0-53.992727 24.389818-53.992727 54.458182 0 30.068364 24.203636 54.458182 53.992727 54.458181z m0 56.506182a110.498909 110.498909 0 0 1-109.940363-110.964363C416.025135 49.710545 465.270225 0 525.965498 0s109.940364 49.710545 109.940364 111.057455c0 61.253818-49.245091 110.964364-109.940364 110.964363z m-264.750545 745.378909c29.789091 0 53.992727-24.389818 53.992727-54.458182a54.178909 54.178909 0 0 0-53.992727-54.458181c-29.789091 0-53.992727 24.389818-53.992728 54.458181 0 30.068364 24.203636 54.458182 53.992728 54.458182z m0 56.599273a110.498909 110.498909 0 0 1-109.940364-111.057455c0-61.253818 49.245091-110.964364 109.940364-110.964363 60.788364 0 109.940364 49.710545 109.940363 110.964363 0 61.346909-49.152 111.057455-109.847272 111.057455z m529.501091-56.599273c29.789091 0 53.992727-24.389818 53.992727-54.458182a54.178909 54.178909 0 0 0-53.992727-54.458181c-29.789091 0-53.992727 24.389818-53.992728 54.458181 0 30.068364 24.203636 54.458182 53.992728 54.458182z m0 56.599273a110.498909 110.498909 0 0 1-109.940364-111.057455c0-61.253818 49.152-110.964364 109.847273-110.964363 60.788364 0 110.033455 49.710545 110.033454 110.964363 0 61.346909-49.245091 111.057455-109.940363 111.057455z" fill="#555555" p-id="110834"></path></svg>