<?xml version="1.0" standalone="no"?><!DOCTYPE svg PUBLIC "-//W3C//DTD SVG 1.1//EN" "http://www.w3.org/Graphics/SVG/1.1/DTD/svg11.dtd"><svg t="1650706206579" class="icon" viewBox="0 0 1024 1024" version="1.1" xmlns="http://www.w3.org/2000/svg" p-id="108775" xmlns:xlink="http://www.w3.org/1999/xlink" width="200" height="200"><defs><style type="text/css">@font-face { font-family: feedback-iconfont; src: url("//at.alicdn.com/t/font_1031158_u69w8yhxdu.woff2?t=1630033759944") format("woff2"), url("//at.alicdn.com/t/font_1031158_u69w8yhxdu.woff?t=1630033759944") format("woff"), url("//at.alicdn.com/t/font_1031158_u69w8yhxdu.ttf?t=1630033759944") format("truetype"); }
</style></defs><path d="M513.798244 959.562927c-13.08722 0-26.074537-3.996098-37.26361-12.088195l-87.214829-62.63883c-6.893268-4.995122-15.085268-7.592585-23.576976-7.592585H210.294634c-80.421463 0-145.857561-64.437073-145.857561-143.559805V207.996878c0-79.122732 65.436098-143.559805 145.857561-143.559805H369.639024c35.565268 0 69.831805 12.787512 96.505756 36.064781 18.681756 16.284098 20.679805 44.556488 4.49561 63.338146-16.184195 18.681756-44.456585 20.679805-63.138341 4.49561-10.389854-9.091122-23.876683-14.086244-37.863025-14.086244H210.294634c-31.069659 0-56.344976 24.17639-56.344975 53.847414v525.686635c0 29.671024 25.275317 53.847415 56.344975 53.847414h155.448195c27.373268 0 53.547707 8.491707 75.726049 24.376195l72.329366 51.949269 72.329366-51.949269c22.178341-15.884488 48.35278-24.376195 75.626146-24.376195h151.95161c31.069659 0 56.344976-24.17639 56.344975-53.847414V207.996878c0-29.671024-25.275317-53.847415-56.344975-53.847415H646.568585c-31.069659 0-56.344976 24.17639-56.344975 53.847415v458.851902c0 24.775805-20.08039 44.856195-44.756293 44.856196s-44.756293-20.08039-44.756293-44.856196V207.996878c0-79.122732 65.436098-143.559805 145.857561-143.559805h167.136781c80.421463 0 145.857561 64.437073 145.857561 143.559805v525.686634c0 79.122732-65.436098 143.559805-145.857561 143.559805H661.753756c-8.491707 0-16.583805 2.597463-23.477073 7.592585l-87.414634 62.738732c-11.089171 7.992195-24.076488 11.988293-37.063805 11.988293z m-15.085268-84.917073z m29.970731-0.099903l0.099903 0.099903c0-0.099902-0.099902-0.099902-0.099903-0.099903z" fill="#1296db" p-id="108776" data-spm-anchor-id="a313x.7781069.0.i48" class="selected"></path><path d="M385.024 431.978146H239.765854c-24.675902 0-44.856195-20.180293-44.856195-44.856195s20.180293-44.856195 44.856195-44.856195h145.258146c24.675902 0 44.856195 20.180293 44.856195 44.856195s-20.180293 44.856195-44.856195 44.856195zM405.004488 617.496976H293.313561c-24.675902 0-44.856195-20.180293-44.856195-44.856196s20.180293-44.856195 44.856195-44.856195h111.690927c24.675902 0 44.856195 20.180293 44.856195 44.856195s-20.180293 44.856195-44.856195 44.856196z" fill="#38E4B2" p-id="108777"></path></svg>