<?xml version="1.0" standalone="no"?><!DOCTYPE svg PUBLIC "-//W3C//DTD SVG 1.1//EN" "http://www.w3.org/Graphics/SVG/1.1/DTD/svg11.dtd"><svg t="1652348005006" class="icon" viewBox="0 0 1024 1024" version="1.1" xmlns="http://www.w3.org/2000/svg" p-id="27677" xmlns:xlink="http://www.w3.org/1999/xlink" width="200" height="200"><defs><style type="text/css">@font-face { font-family: feedback-iconfont; src: url("//at.alicdn.com/t/font_1031158_u69w8yhxdu.woff2?t=1630033759944") format("woff2"), url("//at.alicdn.com/t/font_1031158_u69w8yhxdu.woff?t=1630033759944") format("woff"), url("//at.alicdn.com/t/font_1031158_u69w8yhxdu.ttf?t=1630033759944") format("truetype"); }
</style></defs><path d="M892.45 687.643c-3.314 0-6.627 0-9.942 0.662l-178.294-210.109 125.933-157.085c18.558 9.942 39.105 15.244 61.641 15.244 73.571 0 133.223-59.652 133.223-133.223s-59.652-133.223-133.223-133.223-133.223 59.652-133.223 133.223c0 31.151 10.605 60.315 29.164 82.851l-119.967 149.131-134.549-159.073-2.652-2.652c-1.987-1.987-4.64-3.314-7.29-4.64s-5.966-1.987-8.617-1.987h-4.64c-3.314 0-6.627 1.326-9.942 2.652-2.652 1.326-4.64 2.652-6.627 4.64l-2.652 2.652-127.921 160.398-127.921-150.457c18.558-23.198 29.826-52.362 29.826-84.176 0-73.571-59.652-133.223-133.223-133.223s-133.223 59.652-133.223 133.223 59.652 133.223 133.223 133.223c21.872 0 41.757-5.302 60.315-14.581l135.874 159.737-166.364 210.109c-9.28-1.987-19.221-3.314-29.826-3.314-73.571 0-133.223 59.652-133.223 133.223 0 73.571 59.652 133.223 133.223 133.223s133.223-59.652 133.223-133.223c0-43.083-20.547-81.524-52.362-105.386l151.783-190.887 68.932 81.524c-23.198 21.21-37.78 51.698-37.78 85.502 0 64.292 52.362 115.99 115.99 115.99 64.292 0 115.99-52.362 115.99-115.99 0-30.489-11.93-58.327-31.151-78.875l72.246-90.142 155.758 184.259c-39.769 23.198-66.281 66.281-66.281 115.327 0 73.571 59.652 133.223 133.223 133.223 73.571 0 133.223-59.652 133.223-133.223 1.326-74.235-58.327-134.549-131.898-134.549zM892.45 124.923c43.083 0 77.549 35.129 77.549 77.549s-35.129 77.549-77.549 77.549c-43.083 0-77.549-35.129-77.549-77.549s34.465-77.549 77.549-77.549zM54.002 203.133c0-43.083 35.129-77.549 77.549-77.549s77.549 35.129 77.549 77.549-35.129 77.549-77.549 77.549-77.549-35.129-77.549-77.549zM131.55 899.077c-43.083 0-77.549-35.129-77.549-77.549 0-43.083 35.129-77.549 77.549-77.549s77.549 35.129 77.549 77.549c0.662 42.42-34.465 77.549-77.549 77.549zM512 751.935c-33.14 0-60.315-27.174-60.315-60.315s27.174-60.315 60.315-60.315 60.315 27.174 60.315 60.315-27.174 60.315-60.315 60.315zM550.444 581.595c-11.93-3.977-25.187-6.627-38.444-6.627-9.942 0-19.221 1.326-28.501 3.314l-84.176-98.096 113.34-142.503 119.967 141.177-82.189 102.735zM892.45 899.077c-43.083 0-77.549-35.129-77.549-77.549 0-43.083 35.129-77.549 77.549-77.549 43.083 0 77.549 35.129 77.549 77.549 0 42.42-34.465 77.549-77.549 77.549z" fill="#26A8BB" p-id="27678"></path></svg>