<?xml version="1.0" standalone="no"?><!DOCTYPE svg PUBLIC "-//W3C//DTD SVG 1.1//EN" "http://www.w3.org/Graphics/SVG/1.1/DTD/svg11.dtd"><svg t="1652062508606" class="icon" viewBox="0 0 1024 1024" version="1.1" xmlns="http://www.w3.org/2000/svg" p-id="3426" xmlns:xlink="http://www.w3.org/1999/xlink" width="200" height="200"><defs><style type="text/css">@font-face { font-family: feedback-iconfont; src: url("//at.alicdn.com/t/font_1031158_u69w8yhxdu.woff2?t=1630033759944") format("woff2"), url("//at.alicdn.com/t/font_1031158_u69w8yhxdu.woff?t=1630033759944") format("woff"), url("//at.alicdn.com/t/font_1031158_u69w8yhxdu.ttf?t=1630033759944") format("truetype"); }
</style></defs><path d="M286.72 455.68h112.64v168.96h225.28V455.68h112.64L512 225.28 286.72 455.68z m624.64 225.28h-225.28c0 92.16-76.8 168.96-168.96 168.96-92.16 0-168.96-76.8-168.96-168.96H112.64V112.64h798.72v568.32z m0-680.96H112.64C51.2 0 0 51.2 0 112.64v798.72C0 972.8 51.2 1024 112.64 1024h798.72c61.44 0 112.64-51.2 112.64-112.64V112.64C1024 51.2 972.8 0 911.36 0z" fill="#2D4E73" p-id="3427"></path></svg>