<?xml version="1.0" standalone="no"?><!DOCTYPE svg PUBLIC "-//W3C//DTD SVG 1.1//EN" "http://www.w3.org/Graphics/SVG/1.1/DTD/svg11.dtd"><svg t="1652062400194" class="icon" viewBox="0 0 1024 1024" version="1.1" xmlns="http://www.w3.org/2000/svg" p-id="47647" xmlns:xlink="http://www.w3.org/1999/xlink" width="200" height="200"><defs><style type="text/css">@font-face { font-family: feedback-iconfont; src: url("//at.alicdn.com/t/font_1031158_u69w8yhxdu.woff2?t=1630033759944") format("woff2"), url("//at.alicdn.com/t/font_1031158_u69w8yhxdu.woff?t=1630033759944") format("woff"), url("//at.alicdn.com/t/font_1031158_u69w8yhxdu.ttf?t=1630033759944") format("truetype"); }
</style></defs><path d="M0 0m128 0l768 0q128 0 128 128l0 768q0 128-128 128l-768 0q-128 0-128-128l0-768q0-128 128-128Z" fill="#385D84" p-id="47648"></path><path d="M233.728 704h556.544c27.84 0 41.728 15.552 41.728 46.72v34.56c0 31.168-13.888 46.72-41.728 46.72H233.728C205.888 832 192 816.448 192 785.28v-34.56c0-31.168 13.888-46.72 41.728-46.72zM577.728 568.96l123.84-149.632a10.24 10.24 0 0 0 1.408-11.072 10.496 10.496 0 0 0-9.6-5.888h-54.4c0-174.72-157.12-205.824-241.92-209.984a10.24 10.24 0 1 0-5.504 19.712c63.04 33.472 90.816 90.304 94.08 179.392a10.24 10.24 0 0 1-3.008 7.424 10.56 10.56 0 0 1-7.424 3.072h-43.52a10.496 10.496 0 0 0-9.92 6.016 10.24 10.24 0 0 0 1.792 11.328l123.904 150.016a20.096 20.096 0 0 0 30.272-0.384z" fill="#FFFFFF" p-id="47649"></path></svg>