<?xml version="1.0" standalone="no"?><!DOCTYPE svg PUBLIC "-//W3C//DTD SVG 1.1//EN" "http://www.w3.org/Graphics/SVG/1.1/DTD/svg11.dtd"><svg t="1652346019996" class="icon" viewBox="0 0 1307 1024" version="1.1" xmlns="http://www.w3.org/2000/svg" p-id="3341" xmlns:xlink="http://www.w3.org/1999/xlink" width="255.2734375" height="200"><defs><style type="text/css">@font-face { font-family: feedback-iconfont; src: url("//at.alicdn.com/t/font_1031158_u69w8yhxdu.woff2?t=1630033759944") format("woff2"), url("//at.alicdn.com/t/font_1031158_u69w8yhxdu.woff?t=1630033759944") format("woff"), url("//at.alicdn.com/t/font_1031158_u69w8yhxdu.ttf?t=1630033759944") format("truetype"); }
</style></defs><path d="M617.914367 1023.374465c-11.373355 0-22.74671-2.729605-33.49453-8.871216-135.286055-74.552341-300.0291-92.351641-490.191592-113.562948l-17.401233-2.047204C33.267063 894.798689 0.454934 857.835286 0.454934 812.626201V90.190704C0.454934 42.991281 38.669406 3.298273 85.527628 1.93347c214.274005-3.412006 401.138224 35.541734 555.133448 116.974955 28.149053 14.387294 46.232687 45.152219 46.232688 77.338812v755.986894c0 25.305714-12.738157 48.564225-34.120065 61.586716-10.804687 6.141612-22.803576 9.553618-34.859332 9.553618zM112.311879 70.287333h-25.476315a19.675904 19.675904 0 0 0-19.39157 19.903371V812.626201c0 9.553618 7.392681 17.7993 16.718832 18.481701l17.401232 2.047204c197.555173 21.211307 367.643694 40.37541 514.985506 121.126229h0.682401c0.682401 0.625535 1.364803 0.625535 1.990337 0 0.682401-0.739268 1.364803-1.421669 1.364803-2.104071V196.247237c0-6.824013-3.980674-13.704893-9.383018-16.491364-139.323596-73.187538-306.682512-109.411673-498.892208-109.411674z" fill="#00ABAC" p-id="3342"></path><path d="M692.23924 1021.327262c-12.738157 0-25.476315-3.412006-36.849669-10.918421a72.960071 72.960071 0 0 1-34.802466-64.316321V195.564836c0-32.868995 18.083634-63.690787 46.858222-78.021214 154.052091-80.750819 340.859444-120.443827 554.451047-116.292553 46.915089 1.364803 85.072694 40.37541 85.072694 88.257233v722.492364c0 45.152219-32.812129 82.115622-76.997612 86.892431l-27.466652 3.412007c-184.817016 20.472039-344.214583 39.010607-476.145499 110.833342-10.690954 5.45921-22.74671 8.188815-34.120065 8.188816z m502.92975-951.665464c-191.527295 0-358.943078 36.963403-497.584273 109.46854a19.334703 19.334703 0 0 0-10.065419 17.060032v751.949353c0 2.047204 0.682401 3.412006 2.729605 4.776809 1.990337 1.364803 3.298273 0.682401 3.980674 0h0.682402c143.304271-77.964347 308.729716-96.446049 500.882545-118.339756l27.466652-3.412007a18.538568 18.538568 0 0 0 17.401233-18.481701V89.508302a19.675904 19.675904 0 0 0-19.39157-19.903371h-26.158716z" fill="#00ABAC" p-id="3343"></path><path d="M485.983451 391.925807a28.490254 28.490254 0 0 1-12.738158-2.786472c-88.370967-36.224135-178.789138-54.705837-267.160104-54.705837a33.551397 33.551397 0 0 1-33.551397-34.233798 33.551397 33.551397 0 0 1 33.551397-34.176931c97.071583 0 195.507969 19.846504 292.636419 60.221914 17.401233 6.824013 25.419448 26.670517 18.766036 44.469817a34.290665 34.290665 0 0 1-31.504193 21.211307z m0 229.173099a28.490254 28.490254 0 0 1-12.738158-2.729605c-88.370967-36.281002-178.789138-54.762703-267.160104-54.762704a33.551397 33.551397 0 0 1-33.551397-34.176931 33.551397 33.551397 0 0 1 33.551397-34.233798c97.071583 0 195.507969 19.903371 292.636419 60.221914 17.401233 6.824013 25.419448 26.727384 18.766036 44.469817a34.290665 34.290665 0 0 1-31.504193 21.211307z m335.513967-229.173099a32.755262 32.755262 0 0 1-30.821792-21.211307 34.290665 34.290665 0 0 1 18.766036-44.469817c96.389182-39.693008 194.882435-60.27878 292.636419-60.278781a33.551397 33.551397 0 0 1 33.49453 34.233798 33.551397 33.551397 0 0 1-33.551397 34.233798c-88.996501 0-178.732271 18.481702-267.160104 54.705837a33.437663 33.437663 0 0 1-13.363692 2.786472z m0 229.173099a32.755262 32.755262 0 0 1-30.821792-21.211307 34.290665 34.290665 0 0 1 18.766036-44.469817c96.389182-39.693008 194.882435-60.221914 292.636419-60.221914a33.551397 33.551397 0 0 1 33.49453 34.233798 33.551397 33.551397 0 0 1-33.551397 34.176931c-88.996501 0-178.732271 18.481702-267.160104 54.762704a33.437663 33.437663 0 0 1-13.363692 2.729605z" fill="#00ABAC" p-id="3344"></path></svg>