<?xml version="1.0" standalone="no"?><!DOCTYPE svg PUBLIC "-//W3C//DTD SVG 1.1//EN" "http://www.w3.org/Graphics/SVG/1.1/DTD/svg11.dtd"><svg t="1652347249421" class="icon" viewBox="0 0 1048 1024" version="1.1" xmlns="http://www.w3.org/2000/svg" p-id="14008" xmlns:xlink="http://www.w3.org/1999/xlink" width="204.6875" height="200"><defs><style type="text/css">@font-face { font-family: feedback-iconfont; src: url("//at.alicdn.com/t/font_1031158_u69w8yhxdu.woff2?t=1630033759944") format("woff2"), url("//at.alicdn.com/t/font_1031158_u69w8yhxdu.woff?t=1630033759944") format("woff"), url("//at.alicdn.com/t/font_1031158_u69w8yhxdu.ttf?t=1630033759944") format("truetype"); }
</style></defs><path d="M193.12691 851.625239C195.465781 850.094342 197.719601 848.478396 199.888372 846.756135 197.443189 847.946833 195.168106 849.584042 193.12691 851.625239L193.12691 851.625239ZM193.12691 851.625239C195.465781 850.094342 197.719601 848.478396 199.888372 846.756135 197.443189 847.946833 195.168106 849.584042 193.12691 851.625239L193.12691 851.625239ZM416.574085 138.099657C416.467775 139.715604 416.425248 141.331551 416.425248 142.968761 416.425248 145.56278 416.531561 148.114276 416.786711 150.623246 417.743522 146.625903 417.743522 142.352149 416.574085 138.099657L416.574085 138.099657ZM416.574085 138.099657C416.467775 139.715604 416.425248 141.331551 416.425248 142.968761 416.425248 145.56278 416.531561 148.114276 416.786711 150.623246 417.743522 146.625903 417.743522 142.352149 416.574085 138.099657L416.574085 138.099657ZM193.12691 851.625239C195.465781 850.094342 197.719601 848.478396 199.888372 846.756135 197.443189 847.946833 195.168106 849.584042 193.12691 851.625239L193.12691 851.625239ZM416.574085 138.099657C416.467775 139.715604 416.425248 141.331551 416.425248 142.968761 416.425248 145.56278 416.531561 148.114276 416.786711 150.623246 417.743522 146.625903 417.743522 142.352149 416.574085 138.099657L416.574085 138.099657ZM972.693687 536.749492C962.381395 336.116934 822.261793 166.655139 630.431894 116.815937 632.111628 125.278395 632.983388 134.017265 632.983388 142.968761 632.983388 152.04783 632.069103 160.935538 630.346845 169.504309 794.322923 217.833877 913.03123 365.459125 921.961462 539.343512 922.663124 553.355471 934.612625 564.135538 948.624584 563.412613 962.636545 562.689691 973.416612 550.740189 972.693687 536.749492L972.693687 536.749492Z" p-id="14009" fill="#00ABAC"></path><path d="M901.506977 628.050489C827.662457 628.050489 767.808638 687.904308 767.808638 761.727564 767.808638 795.768761 780.54485 826.854474 801.530897 850.455804 725.942858 925.320921 623.840532 968.356135 514.764119 968.356135 415.617276 968.356135 322.16877 932.84783 248.962127 869.825903 253.682393 864.425239 257.977408 858.663112 261.762127 852.539525 274.562127 832.042515 281.918938 807.845838 281.918938 781.9269 281.918938 708.082381 222.065116 648.249823 148.24186 648.249823 144.797342 648.249823 141.374086 648.377399 137.993356 648.632549 130.487708 649.206634 123.152159 650.376071 116.071761 652.162117 109.246512 622.415936 105.759468 591.755471 105.759468 560.648494 105.759468 388.528892 213.368771 237.459125 370.43455 178.710953 386.062457 235.205306 437.836545 276.688363 499.285049 276.688363 564.029235 276.688363 618.035881 230.65514 630.346845 169.546834 632.069103 160.978063 632.983388 152.090355 632.983388 143.011285 632.983388 134.059791 632.111628 125.32092 630.431894 116.858462 618.269767 55.558794 564.178072 9.334209 499.306313 9.334209 431.202659 9.334209 374.963455 60.300322 366.692359 126.171418 182.431894 188.342847 54.984718 362.014608 54.984718 560.669758 54.984718 598.857133 59.662458 636.470422 68.805316 672.829226 68.911628 673.275737 69.039203 673.722249 69.166778 674.190024 36.082392 698.514275 14.607309 737.722249 14.607309 781.969425 14.607309 855.813944 74.461129 915.667763 148.305648 915.667763 169.823256 915.667763 190.128904 910.586037 208.138206 901.549492 291.529568 976.669758 399.840532 1019.215936 514.827907 1019.215936 639.851163 1019.215936 756.837209 968.866435 842.291031 881.64783 860.151496 890.493014 880.26578 895.468427 901.549501 895.468427 975.372757 895.468427 1035.226579 835.614608 1035.226579 761.791352 1035.184054 687.904308 975.330233 628.050489 901.506977 628.050489L901.506977 628.050489ZM416.574085 138.099657C419.083057 94.596668 455.16545 60.087698 499.285049 60.087698 545.063124 60.087698 582.166114 97.190687 582.166114 142.968761 582.166114 188.725571 545.063124 225.849824 499.285049 225.849824 456.100997 225.849824 420.635217 192.807963 416.76545 150.623246 416.531561 148.093013 416.403987 145.541518 416.403987 142.968761 416.425248 141.331551 416.489036 139.715604 416.574085 138.099657L416.574085 138.099657ZM199.888372 846.756135C197.719601 848.478396 195.465781 850.094342 193.12691 851.625239 180.199336 859.960122 164.784053 864.807962 148.263123 864.807962 102.48505 864.807962 65.360797 827.704973 65.360797 781.9269 65.360797 736.170089 102.463787 699.045838 148.263123 699.045838 194.019934 699.045838 231.144186 736.170089 231.144186 781.9269 231.144186 808.186037 218.939535 831.57474 199.888372 846.756135L199.888372 846.756135ZM901.506977 844.608629C855.728904 844.608629 818.604651 807.505637 818.604651 761.727564 818.604651 715.949492 855.728904 678.846502 901.506977 678.846502 947.263788 678.846502 984.388039 715.949492 984.388039 761.727564 984.388039 807.505637 947.263788 844.608629 901.506977 844.608629L901.506977 844.608629Z" p-id="14010" fill="#00ABAC"></path></svg>