<?xml version="1.0" standalone="no"?><!DOCTYPE svg PUBLIC "-//W3C//DTD SVG 1.1//EN" "http://www.w3.org/Graphics/SVG/1.1/DTD/svg11.dtd"><svg t="1652348396142" class="icon" viewBox="0 0 1024 1024" version="1.1" xmlns="http://www.w3.org/2000/svg" p-id="35758" xmlns:xlink="http://www.w3.org/1999/xlink" width="200" height="200"><defs><style type="text/css">@font-face { font-family: feedback-iconfont; src: url("//at.alicdn.com/t/font_1031158_u69w8yhxdu.woff2?t=1630033759944") format("woff2"), url("//at.alicdn.com/t/font_1031158_u69w8yhxdu.woff?t=1630033759944") format("woff"), url("//at.alicdn.com/t/font_1031158_u69w8yhxdu.ttf?t=1630033759944") format("truetype"); }
</style></defs><path d="M0 0m96 0l832 0q96 0 96 96l0 832q0 96-96 96l-832 0q-96 0-96-96l0-832q0-96 96-96Z" fill="#385D84" p-id="35759" data-spm-anchor-id="a313x.7781069.0.i46" class="selected"></path><path d="M576 704c-61.248 21.632-140.8 32-192 0 9.6-16 32-64 32-64H256l64 160 32-64c73.888 48.288 169.024 37.76 256 0 76.224-33.056 141.888-130.272 128-256h-32s5.888 176.64-128 224z m-158.688-384c60.992-21.664 140.192-32 191.2 0-9.6 16-32 64-32 64H736l-63.744-160-32 64c-73.6-48.288-168.32-37.728-254.944 0-75.904 33.088-141.312 130.304-127.456 256h32s-5.888-176.768 127.456-224z" fill="#FFFFFF" p-id="35760" data-spm-anchor-id="a313x.7781069.0.i47" class=""></path></svg>