<?xml version="1.0" standalone="no"?><!DOCTYPE svg PUBLIC "-//W3C//DTD SVG 1.1//EN" "http://www.w3.org/Graphics/SVG/1.1/DTD/svg11.dtd"><svg t="1652062628909" class="icon" viewBox="0 0 1024 1024" version="1.1" xmlns="http://www.w3.org/2000/svg" p-id="2370" xmlns:xlink="http://www.w3.org/1999/xlink" width="200" height="200"><defs><style type="text/css">@font-face { font-family: feedback-iconfont; src: url("//at.alicdn.com/t/font_1031158_u69w8yhxdu.woff2?t=1630033759944") format("woff2"), url("//at.alicdn.com/t/font_1031158_u69w8yhxdu.woff?t=1630033759944") format("woff"), url("//at.alicdn.com/t/font_1031158_u69w8yhxdu.ttf?t=1630033759944") format("truetype"); }
</style></defs><path d="M910.189714 0H113.810286A114.102857 114.102857 0 0 0 0 113.810286v796.452571A114.102857 114.102857 0 0 0 113.810286 1024h796.452571A114.102857 114.102857 0 0 0 1024 910.189714V113.810286A114.102857 114.102857 0 0 0 910.189714 0zM227.547429 312.905143h432.347428L585.947429 238.957714A56.32 56.32 0 0 1 665.6 159.305143l170.642286 170.642286a51.931429 51.931429 0 0 1 11.410285 62.610285 54.637714 54.637714 0 0 1-51.2 34.157715H227.547429a56.905143 56.905143 0 1 1 0-113.810286z m568.905142 398.189714H364.105143l73.947428 73.947429a55.003429 55.003429 0 0 1 0 79.652571 55.003429 55.003429 0 0 1-79.652571 0L187.757714 694.052571a51.931429 51.931429 0 0 1-11.410285-62.610285 54.637714 54.637714 0 0 1 51.2-34.157715h568.905142a56.905143 56.905143 0 0 1 0 113.810286z" fill="#2C5D88" p-id="2371"></path></svg>